<?xml version="1.0" encoding="UTF-8"?>
<svg xmlns="http://www.w3.org/2000/svg" viewBox="0 0 480 395">
  <defs>
    <linearGradient id="bg" x1="0" y1="0" x2="1" y2="1">
      <stop offset="0" stop-color="#f7f8f8" />
      <stop offset="1" stop-color="#f5fafe" />
    </linearGradient>
  </defs>
  <rect width="480" height="395" rx="36" fill="url(#bg)" />
  <circle cx="116" cy="96" r="88" fill="#024d8d" opacity="0.08" />
  <circle cx="360" cy="300" r="108" fill="#fcb900" opacity="0.10" />

  <path d="M240 78 L248 96 L268 98 L252 112 L258 132 L240 122 L222 132 L228 112 L212 98 L232 96 Z" fill="#fcb900" />

  <g fill="none" stroke="#024d8d" stroke-width="14" stroke-linecap="round" stroke-linejoin="round">
    <path d="M240 140 C210 125 180 125 155 137 V285 C180 275 210 275 240 285" />
    <path d="M240 140 C270 125 300 125 325 137 V285 C300 275 270 275 240 285" />
    <path d="M240 140 V285" />
  </g>
</svg>
