<?xml version="1.0" encoding="UTF-8"?>
<svg xmlns="http://www.w3.org/2000/svg" viewBox="0 0 480 395">
  <defs>
    <linearGradient id="bg" x1="0" y1="0" x2="1" y2="1">
      <stop offset="0" stop-color="#f5fafe" />
      <stop offset="1" stop-color="#f7f8f8" />
    </linearGradient>
  </defs>
  <rect width="480" height="395" rx="36" fill="url(#bg)" />
  <circle cx="352" cy="104" r="96" fill="#51A94C" opacity="0.09" />
  <circle cx="132" cy="280" r="112" fill="#024d8d" opacity="0.08" />

  <g fill="none" stroke="#024d8d" stroke-width="14" stroke-linecap="round" stroke-linejoin="round">
    <circle cx="170" cy="180" r="26" />
    <circle cx="240" cy="162" r="30" />
    <circle cx="310" cy="180" r="26" />
    <path d="M120 305 C150 260 195 238 240 238 C285 238 330 260 360 305" />
    <path d="M110 305 C124 278 148 266 176 266" />
    <path d="M370 305 C356 278 332 266 304 266" />
  </g>

  <path d="M240 292L234 286C222 276 214 268 214 260C214 254 219 249 225 249C229 249 233 251 240 257C247 251 251 249 255 249C261 249 266 254 266 260C266 268 258 276 246 286L240 292Z" fill="#51A94C" />
</svg>
